<?xml version="1.0" encoding="utf-8"?>
<!-- Generator: Adobe Illustrator 16.0.4, SVG Export Plug-In . SVG Version: 6.00 Build 0)  -->
<!DOCTYPE svg PUBLIC "-//W3C//DTD SVG 1.1//EN" "http://www.w3.org/Graphics/SVG/1.1/DTD/svg11.dtd">
<svg version="1.1" id="Layer_1" xmlns="http://www.w3.org/2000/svg" xmlns:xlink="http://www.w3.org/1999/xlink" x="0px" y="0px"
	 width="120px" height="24px" viewBox="0 0 120 24" enable-background="new 0 0 120 24" xml:space="preserve">
<polygon fill="#FFFFFF" points="22.542,2.232 21.311,1.001 11.772,10.541 2.232,1.001 1.001,2.232 10.541,11.771 1.001,21.311 
	2.232,22.542 11.772,13.001 21.311,22.542 22.542,21.311 13.002,11.771 "/>
<path fill="#FFFFFF" d="M61.107,0.446l-8.839,8.841l-2.706,2.707l2.706,2.705l8.839,8.84l1.02-1.02l-8.839-8.84l-1.685-1.685
	l1.685-1.687l8.839-8.84L61.107,0.446"/>
<path fill="#FFFFFF" d="M97.457,0.446l-1.02,1.021l8.84,8.84l1.688,1.687l-1.688,1.685l-8.84,8.84l1.02,1.02l8.842-8.84l2.705-2.705
	l-2.705-2.707L97.457,0.446"/>
</svg>
